<svg width="40" height="42" viewBox="0 0 40 42" fill="none" xmlns="http://www.w3.org/2000/svg">
<path d="M39.5 21.0482C39.5 32.0543 30.76 40.9591 20 40.9591C9.23999 40.9591 0.5 32.0543 0.5 21.0482C0.5 10.042 9.23999 1.13721 20 1.13721C30.76 1.13721 39.5 10.042 39.5 21.0482Z" stroke="black" stroke-opacity="0.2"/>
<g clip-path="url(#clip0_81_188)">
<path d="M17.6915 33.2944V22.2804H15.0005V18.3148H17.6915V14.9277C17.6915 12.266 19.2811 9.82178 22.9439 9.82178C24.4269 9.82178 25.5235 9.97564 25.5235 9.97564L25.4371 13.6788C25.4371 13.6788 24.3187 13.667 23.0983 13.667C21.7774 13.667 21.5658 14.3258 21.5658 15.4192V18.3148H25.5421L25.369 22.2804H21.5658V33.2944H17.6915Z" fill="black" fill-opacity="0.2"/>
</g>
<defs>
<clipPath id="clip0_81_188">
<rect width="10.5416" height="23.4726" fill="white" transform="translate(15 9.82178)"/>
</clipPath>
</defs>
</svg>
