<svg width="40" height="41" viewBox="0 0 40 41" fill="none" xmlns="http://www.w3.org/2000/svg">
<path d="M39.5 20.411C39.5 31.4171 30.76 40.3219 20 40.3219C9.23999 40.3219 0.5 31.4171 0.5 20.411C0.5 9.4048 9.23999 0.5 20 0.5C30.76 0.5 39.5 9.4048 39.5 20.411Z" stroke="black" stroke-opacity="0.2"/>
<path d="M19.6692 14.1768C18.2149 14.1768 16.8202 14.7536 15.7919 15.7803C14.7635 16.8071 14.1858 18.1997 14.1858 19.6517C14.1858 21.1037 14.7635 22.4963 15.7919 23.5231C16.8202 24.5498 18.2149 25.1266 19.6692 25.1266C21.1236 25.1266 22.5183 24.5498 23.5466 23.5231C24.575 22.4963 25.1527 21.1037 25.1527 19.6517C25.1527 18.1997 24.575 16.8071 23.5466 15.7803C22.5183 14.7536 21.1236 14.1768 19.6692 14.1768ZM19.6692 23.2073C18.7245 23.2073 17.8184 22.8326 17.1503 22.1656C16.4822 21.4985 16.1069 20.5938 16.1069 19.6505C16.1069 18.7072 16.4822 17.8025 17.1503 17.1355C17.8184 16.4684 18.7245 16.0937 19.6692 16.0937C20.614 16.0937 21.5201 16.4684 22.1882 17.1355C22.8563 17.8025 23.2316 18.7072 23.2316 19.6505C23.2316 20.5938 22.8563 21.4985 22.1882 22.1656C21.5201 22.8326 20.614 23.2073 19.6692 23.2073Z" fill="black" fill-opacity="0.2"/>
<path d="M25.3697 15.2515C26.0757 15.2515 26.648 14.68 26.648 13.9751C26.648 13.2702 26.0757 12.6987 25.3697 12.6987C24.6637 12.6987 24.0913 13.2702 24.0913 13.9751C24.0913 14.68 24.6637 15.2515 25.3697 15.2515Z" fill="black" fill-opacity="0.2"/>
<path d="M30.4173 12.7886C30.1344 12.0594 29.7022 11.3972 29.1483 10.8444C28.5944 10.2915 27.931 9.86028 27.2006 9.57818C26.3458 9.25781 25.4428 9.08458 24.53 9.06587C23.3535 9.01464 22.9809 9 19.9976 9C17.0142 9 16.6318 9 15.4651 9.06587C14.553 9.08362 13.6506 9.25689 12.797 9.57818C12.0663 9.85995 11.4028 10.2911 10.8488 10.844C10.2949 11.3969 9.86278 12.0592 9.5803 12.7886C9.25937 13.642 9.08627 14.5437 9.06841 15.4551C9.01588 16.6285 9 17.0006 9 19.9805C9 22.9592 9 23.3385 9.06841 24.5059C9.08674 25.4183 9.259 26.3185 9.5803 27.1735C9.86358 27.9027 10.2961 28.5648 10.8502 29.1176C11.4042 29.6704 12.0677 30.1017 12.7982 30.384C13.6502 30.7172 14.553 30.9029 15.4676 30.9329C16.644 30.9841 17.0167 31 20 31C22.9833 31 23.3657 31 24.5324 30.9329C25.4452 30.9144 26.3481 30.7416 27.203 30.4218C27.9333 30.1391 28.5965 29.7074 29.1503 29.1544C29.7042 28.6014 30.1365 27.9393 30.4197 27.2101C30.741 26.3563 30.9133 25.4561 30.9316 24.5437C30.9841 23.3703 31 22.9982 31 20.0183C31 17.0384 31 16.6602 30.9316 15.4929C30.9174 14.5686 30.7434 13.6538 30.4173 12.7886ZM28.9293 24.4156C28.9214 25.1186 28.7929 25.815 28.5493 26.4746C28.3658 26.9489 28.085 27.3797 27.7248 27.7391C27.3646 28.0986 26.933 28.3788 26.4578 28.5617C25.8045 28.8037 25.1144 28.932 24.4176 28.941C23.257 28.9947 22.9296 29.0081 19.9536 29.0081C16.9751 29.0081 16.6709 29.0081 15.4883 28.941C14.7919 28.9325 14.1021 28.8042 13.4494 28.5617C12.9725 28.3799 12.5392 28.1002 12.1775 27.7407C11.8157 27.3812 11.5336 26.9499 11.3493 26.4746C11.1092 25.8221 10.9807 25.1339 10.9693 24.4388C10.9168 23.28 10.9046 22.9531 10.9046 19.9817C10.9046 17.0091 10.9046 16.7054 10.9693 15.5234C10.9772 14.8208 11.1058 14.1248 11.3493 13.4656C11.7219 12.5032 12.4855 11.7457 13.4494 11.3774C14.1025 11.136 14.792 11.0077 15.4883 10.998C16.6502 10.9456 16.9763 10.9309 19.9536 10.9309C22.9308 10.9309 23.2362 10.9309 24.4176 10.998C25.1145 11.0064 25.8046 11.1347 26.4578 11.3774C26.9329 11.5607 27.3645 11.8411 27.7246 12.2007C28.0848 12.5604 28.3657 12.9912 28.5493 13.4656C28.7894 14.1181 28.9179 14.8064 28.9293 15.5014C28.9818 16.6615 28.9952 16.9871 28.9952 19.9597C28.9952 22.9311 28.9952 23.2507 28.9427 24.4168H28.9293V24.4156Z" fill="black" fill-opacity="0.2"/>
</svg>
