<svg width="18" height="18" viewBox="0 0 18 18" fill="none" xmlns="http://www.w3.org/2000/svg">
<g clip-path="url(#clip0_12_2)">
<path d="M13.865 17.72C13.6968 17.7195 13.5292 17.7011 13.365 17.665C10.2383 17.0182 7.3578 15.5017 5.05499 13.29C2.80132 11.0734 1.23829 8.2513 0.55499 5.165C0.474421 4.78036 0.494196 4.38145 0.612412 4.00666C0.730629 3.63187 0.943309 3.29381 1.22999 3.025L3.22999 1.1C3.33214 1.00339 3.45352 0.929416 3.5862 0.882892C3.71888 0.836368 3.85987 0.818346 3.99999 0.830001C4.14527 0.845157 4.28547 0.891958 4.41072 0.96711C4.53598 1.04226 4.64325 1.14394 4.72499 1.265L7.22499 4.96C7.31874 5.10337 7.364 5.27305 7.3541 5.44407C7.34419 5.61508 7.27966 5.77841 7.16999 5.91L5.91499 7.41C6.41482 8.51623 7.12266 9.51604 7.99999 10.355C8.87164 11.2244 9.90191 11.9186 11.035 12.4L12.59 11.165C12.7206 11.0618 12.8795 11.0008 13.0456 10.99C13.2118 10.9793 13.3772 11.0194 13.52 11.105L17.295 13.545C17.4245 13.6223 17.5349 13.728 17.6178 13.8541C17.7007 13.9801 17.754 14.1233 17.7738 14.2729C17.7935 14.4225 17.7791 14.5746 17.7317 14.7178C17.6843 14.8611 17.6051 14.9917 17.5 15.1L15.55 17.03C15.3285 17.2504 15.0656 17.4249 14.7764 17.5433C14.4872 17.6617 14.1775 17.7218 13.865 17.72ZM3.91999 1.82L1.91999 3.745C1.75872 3.89528 1.63933 4.08494 1.57358 4.29534C1.50783 4.50574 1.49798 4.72964 1.54499 4.945C2.18035 7.84107 3.64085 10.4912 5.74999 12.575C7.91709 14.6558 10.6278 16.0822 13.57 16.69C13.7927 16.7366 14.0235 16.7271 14.2416 16.6626C14.4598 16.598 14.6585 16.4803 14.82 16.32L16.77 14.39L13.125 12.035L11.455 13.365C11.3911 13.4156 11.3157 13.4498 11.2355 13.4646C11.1554 13.4794 11.0728 13.4744 10.995 13.45C9.60834 12.9391 8.35172 12.1281 7.31499 11.075C6.24267 10.0736 5.4103 8.84301 4.87999 7.475C4.85755 7.39218 4.85681 7.30499 4.87783 7.2218C4.89884 7.13861 4.94091 7.06223 4.99999 7L6.34999 5.385L3.91999 1.82Z" fill="black"/>
</g>
<defs>
<clipPath id="clip0_12_2">
<rect width="18" height="18" fill="white"/>
</clipPath>
</defs>
</svg>
