<svg width="40" height="42" viewBox="0 0 40 42" fill="none" xmlns="http://www.w3.org/2000/svg">
<path d="M39.5 21.0482C39.5 32.0543 30.76 40.9591 20 40.9591C9.23999 40.9591 0.5 32.0543 0.5 21.0482C0.5 10.042 9.23999 1.13721 20 1.13721C30.76 1.13721 39.5 10.042 39.5 21.0482Z" stroke="black" stroke-opacity="0.5"/>
<path fill-rule="evenodd" clip-rule="evenodd" d="M29.3625 23.8552C29.3625 23.8552 31.3029 25.811 31.7829 26.716C31.7922 26.729 31.7995 26.7435 31.8045 26.7588C32.0001 27.0932 32.0481 27.3553 31.9521 27.5487C31.7901 27.8684 31.2417 28.0288 31.0557 28.0423H27.6261C27.3873 28.0423 26.8905 27.9786 26.2857 27.5524C25.8237 27.223 25.3641 26.6805 24.9189 26.1502C24.2541 25.3627 23.6793 24.6794 23.0973 24.6794C23.0238 24.6792 22.9508 24.6916 22.8813 24.7161C22.4409 24.8582 21.8817 25.4987 21.8817 27.2046C21.8817 27.7386 21.4689 28.0423 21.1797 28.0423H19.6089C19.0737 28.0423 16.2873 27.8512 13.8165 25.1925C10.7889 21.9374 8.06971 15.4075 8.04331 15.3499C7.87411 14.9274 8.22931 14.6972 8.61331 14.6972H12.0765C12.5409 14.6972 12.6921 14.9838 12.7977 15.2409C12.9201 15.5361 13.3737 16.7167 14.1177 18.043C15.3225 20.2008 16.0629 21.0789 16.6545 21.0789C16.7657 21.0792 16.8749 21.0496 16.9713 20.9932C17.7441 20.5596 17.6001 17.7429 17.5641 17.1624C17.5641 17.0498 17.5629 15.9047 17.1669 15.3512C16.8837 14.9544 16.4013 14.8001 16.1097 14.7437C16.1877 14.6286 16.3533 14.4523 16.5657 14.3482C17.0949 14.0787 18.0513 14.0396 19.0005 14.0396H19.5273C20.5569 14.0542 20.8233 14.1216 21.1977 14.2184C21.9513 14.402 21.9657 14.9005 21.8997 16.5979C21.8805 17.0828 21.8601 17.629 21.8601 18.272C21.8601 18.4091 21.8541 18.5622 21.8541 18.7177C21.8313 19.5885 21.8013 20.5694 22.4037 20.9723C22.4818 21.022 22.5721 21.0483 22.6641 21.0483C22.8729 21.0483 23.4981 21.0483 25.1937 18.0785C25.9377 16.7669 26.5137 15.2201 26.5533 15.1038C26.5869 15.0389 26.6877 14.8564 26.8101 14.7829C26.8972 14.7356 26.9947 14.712 27.0933 14.7143H31.1673C31.6113 14.7143 31.9125 14.7829 31.9713 14.9544C32.0697 15.2324 31.9521 16.0811 30.0921 18.6479C29.7789 19.0753 29.5041 19.4452 29.2629 19.7685C27.5769 22.0268 27.5769 22.1407 29.3625 23.8552Z" fill="black" fill-opacity="0.5"/>
</svg>
